<svg xmlns="http://www.w3.org/2000/svg" viewBox="0 0 250 38"><linearGradient id="logo-gradient-1" gradientUnits="userSpaceOnUse" x1="144.338" y1="12.64" x2="144.338" y2="29.911"><stop offset="0" stop-color="#abe0a5"></stop><stop offset=".5" stop-color="#71c5a9"></stop><stop offset="1" stop-color="#61bdaa"></stop></linearGradient><path d="M137.2 12.6c2.8 7.3 1.8 19.4 14.2 16.9 1.1-9.7-7.8-15.5-14.2-16.9zM152.7 30c0-.1 0-.2-.1-.3-.1-.1-.2 0-.3 0-1.1 1-1.5 3.1-1.1 6.1.1.6.6 1 1.2 1 .2 0 .4-.1.6-.1.3-.1.5-.3.6-.5.1-.2.1-.5-.1-.7-1.3-2-1.1-3-.8-5.5z" fill="url(#logo-gradient-1)"></path><path d="M152.6 29.3c9.7.9 10.2-8.4 13.3-9.5-1.9-.4-15.7-.9-13.3 9.5zM19.8 20.9H28v10.7c-1 .7-2.4 1.2-4 1.6-1.7.4-3.5.6-5.5.6-2.3 0-4.3-.4-6.1-1.2-1.8-.8-3.4-1.9-4.6-3.3-1.3-1.4-2.2-3-2.9-4.9-.7-1.9-1-3.8-1-5.9 0-2.1.3-4 1-5.9.7-1.9 1.7-3.5 2.9-4.9 1.3-1.4 2.8-2.5 4.6-3.4 1.8-.8 3.9-1.2 6.1-1.2 2.2 0 4.1.4 5.8 1.1C26 5 27.5 6 28.7 7.3l2.5-2.5c-1.5-1.5-3.3-2.7-5.4-3.5C23.7.4 21.3 0 18.4 0c-2.6 0-5.1.5-7.3 1.4-2.2.9-4.2 2.2-5.8 3.9-1.6 1.6-2.9 3.6-3.9 5.9C.5 13.4 0 15.9 0 18.6s.5 5.2 1.4 7.4c.9 2.3 2.2 4.2 3.8 5.9 1.6 1.6 3.6 2.9 5.8 3.9 2.3.9 4.7 1.4 7.4 1.4 2.4 0 4.7-.3 6.9-.9 2.2-.6 4.3-1.4 6.2-2.6v-16H19.8v3.2zM76.1 15.7c-.9-1-2.1-1.9-3.5-2.5-1.4-.6-3-.9-4.8-.9-1.7 0-3.2.3-4.6.9-1.4.6-2.7 1.5-3.7 2.6-1.1 1.1-1.9 2.4-2.5 3.9-.6 1.5-.9 3.1-.9 4.9 0 1.8.3 3.4.9 4.9.6 1.5 1.5 2.8 2.5 3.9 1.1 1.1 2.3 2 3.8 2.6 1.5.6 3.1.9 4.8.9 1.9 0 3.7-.4 5.4-1.1 1.7-.8 3.2-2 4.6-3.8l-2.5-2c-.7 1.1-1.6 2-2.9 2.8-1.3.8-2.8 1.2-4.6 1.2-1.2 0-2.3-.2-3.3-.7-1-.4-1.9-1.1-2.7-1.8-.8-.8-1.4-1.7-1.8-2.7-.4-1-.7-2.1-.7-3.3H79v-.8-.7c0-1.6-.2-3.1-.7-4.5-.6-1.5-1.3-2.7-2.2-3.8zm-16.5 7.1c.1-1 .3-2 .7-2.9.4-.9 1-1.7 1.7-2.4s1.6-1.3 2.5-1.7c1-.4 2-.6 3.1-.6 2.4 0 4.3.7 5.6 2.2 1.3 1.4 2 3.3 2.1 5.5H59.6zM51.4 12.3c-1.7 0-3.2.4-4.5 1.3-1.3.8-2.3 2-3 3.3h-.1V15c0-.8-.1-1.5-.1-2.1h-3.2c.1.8.1 1.7.1 2.7V36.2H44v-12c0-1.6.2-2.9.6-4 .4-1.1.9-2 1.5-2.7.6-.7 1.3-1.2 2.2-1.6.8-.3 1.7-.5 2.6-.5.5 0 .9 0 1.4.1.5.1.8.1 1 .2l.4-3.2c-.4-.1-.7-.2-1.1-.2h-1.2zM126.1 12.3c-1.7 0-3.2.4-4.7 1.3-1.5.8-2.6 2-3.2 3.3h-.2V15c0-.8-.1-1.5-.1-2.1h-3.2c.1.8.1 1.7.1 2.7V36.2h3.4v-12c0-1.6.2-2.9.6-4.1.4-1.1.9-2.1 1.6-2.8.7-.7 1.4-1.3 2.3-1.7.8-.4 1.7-.5 2.6-.5 1.2 0 2.3.2 3.1.6.8.4 1.5 1 1.9 1.7.5.7.8 1.6 1 2.6.2 1 .3 2.1.3 3.3v12.9h3.4V21.9c0-2.9-.7-5.2-2.2-7-1.5-1.7-3.7-2.6-6.7-2.6zM104.7 15.7c-.9-1-2.1-1.9-3.5-2.5-1.4-.6-3-.9-4.8-.9-1.7 0-3.2.3-4.6.9-1.4.6-2.7 1.5-3.7 2.6-1.1 1.1-1.9 2.4-2.5 3.9-.6 1.5-.9 3.1-.9 4.9 0 1.8.3 3.4.9 4.9.6 1.5 1.5 2.8 2.5 3.9 1.1 1.1 2.3 2 3.8 2.6 1.5.6 3.1.9 4.8.9 1.9 0 3.7-.4 5.4-1.1 1.7-.8 3.2-2 4.6-3.8l-2.5-2c-.7 1.1-1.6 2-2.9 2.8-1.3.8-2.8 1.2-4.6 1.2-1.2 0-2.3-.2-3.3-.7-1-.4-1.9-1.1-2.7-1.8-.8-.8-1.4-1.7-1.8-2.7-.4-1-.7-2.1-.7-3.3h19.4v-.8-.7c0-1.6-.2-3.1-.7-4.5-.6-1.5-1.3-2.7-2.2-3.8zm-16.6 7.1c.1-1 .3-2 .7-2.9.4-.9 1-1.7 1.7-2.4s1.6-1.3 2.5-1.7c1-.4 2-.6 3.1-.6 2.4 0 4.3.7 5.6 2.2 1.3 1.4 2 3.3 2.1 5.5H88.1zM188.1 20.9h8.2v10.7c-1 .7-2.4 1.2-4 1.6-1.7.4-3.5.6-5.5.6-2.3 0-4.3-.4-6.1-1.2-1.8-.8-3.4-1.9-4.6-3.3-1.3-1.4-2.2-3-2.9-4.9-.7-1.9-1-3.8-1-5.9 0-2.1.3-4 1-5.9.7-1.9 1.7-3.5 2.9-4.9 1.3-1.4 2.8-2.5 4.6-3.4 1.8-.8 3.9-1.2 6.1-1.2 2.2 0 4.1.4 5.8 1.1 1.7.7 3.2 1.7 4.4 3l2.5-2.5c-1.5-1.5-3.3-2.7-5.4-3.5-2.1-.8-4.6-1.3-7.4-1.3-2.6 0-5.1.5-7.3 1.4-2.2.9-4.2 2.2-5.8 3.9-1.6 1.6-2.9 3.6-3.9 5.9-.9 2.3-1.4 4.7-1.4 7.4s.5 5.2 1.4 7.4c.9 2.3 2.2 4.2 3.8 5.9 1.6 1.6 3.6 2.9 5.8 3.9 2.3.9 4.7 1.4 7.4 1.4 2.4 0 4.7-.3 6.9-.9 2.2-.6 4.3-1.4 6.2-2.6v-16H188v3.3zM228.7 15.8c-1.1-1.1-2.4-2-3.9-2.6-1.5-.6-3.2-.9-5-.9-1.8 0-3.5.3-5 .9-1.5.6-2.8 1.5-3.9 2.6s-2 2.4-2.6 3.9c-.6 1.5-.9 3.1-.9 4.9 0 1.8.3 3.4.9 4.9.6 1.5 1.5 2.8 2.6 3.9s2.4 2 3.9 2.6c1.5.6 3.2.9 5 .9 1.8 0 3.5-.3 5-.9 1.5-.6 2.8-1.5 3.9-2.6s2-2.4 2.6-3.9c.6-1.5.9-3.1.9-4.9 0-1.8-.3-3.4-.9-4.9-.7-1.5-1.5-2.8-2.6-3.9zm-.7 12.4c-.4 1.1-1 2.1-1.8 3-.8.8-1.7 1.5-2.8 2-1.1.5-2.3.7-3.7.7-1.4 0-2.6-.2-3.7-.7-1.1-.5-2-1.1-2.8-2-.8-.8-1.4-1.8-1.8-3-.4-1.1-.6-2.4-.6-3.7 0-1.3.2-2.5.6-3.7.4-1.1 1-2.1 1.8-3 .8-.8 1.7-1.5 2.8-2 1.1-.5 2.3-.7 3.7-.7 1.4 0 2.6.2 3.7.7 1.1.5 2 1.2 2.8 2 .8.8 1.4 1.8 1.8 3 .4 1.1.6 2.4.6 3.7 0 1.4-.2 2.6-.6 3.7zM250 15.7v-2.8h-6.6V6.3H240v6.6h-4.8v2.8h4.8v14.6c0 1.3.2 2.3.6 3.1.4.8.9 1.4 1.5 1.9s1.2.8 1.9.9c.7.2 1.4.2 2 .2a12.482 12.482 0 004-.7l-.1-2.9c-.5.2-1 .4-1.5.5-.5.1-1 .2-1.5.2s-1-.1-1.4-.2c-.4-.1-.8-.3-1.1-.6-.3-.3-.6-.8-.7-1.3-.2-.6-.2-1.3-.2-2.1V15.7h6.5z" fill="url(#logo-gradient-1)"></path></svg>